<svg width="24" height="24" viewBox="0 0 24 24" fill="none" xmlns="http://www.w3.org/2000/svg">
<path d="M4 7C4 6.72386 4.22386 6.5 4.5 6.5H19.5C19.7761 6.5 20 6.72386 20 7C20 7.27614 19.7761 7.5 19.5 7.5H4.5C4.22386 7.5 4 7.27614 4 7Z" fill="currentColor"/>
<path d="M4 12C4 11.7239 4.22386 11.5 4.5 11.5H19.5C19.7761 11.5 20 11.7239 20 12C20 12.2761 19.7761 12.5 19.5 12.5H4.5C4.22386 12.5 4 12.2761 4 12Z" fill="currentColor"/>
<path d="M4.5 16.5C4.22386 16.5 4 16.7239 4 17C4 17.2761 4.22386 17.5 4.5 17.5H19.5C19.7761 17.5 20 17.2761 20 17C20 16.7239 19.7761 16.5 19.5 16.5H4.5Z" fill="currentColor"/>
</svg>
