<svg width="25" height="24" viewBox="0 0 25 24" fill="none" xmlns="http://www.w3.org/2000/svg">
<path d="M19.0811 6.35355C19.2764 6.15829 19.2764 5.84171 19.0811 5.64645C18.8858 5.45118 18.5692 5.45118 18.374 5.64645L12.7275 11.2929L7.08109 5.64645C6.88583 5.45118 6.56925 5.45118 6.37399 5.64645C6.17872 5.84171 6.17872 6.15829 6.37399 6.35355L12.0204 12L6.37399 17.6464C6.17872 17.8417 6.17872 18.1583 6.37399 18.3536C6.56925 18.5488 6.88583 18.5488 7.08109 18.3536L12.7275 12.7071L18.374 18.3536C18.5692 18.5488 18.8858 18.5488 19.0811 18.3536C19.2764 18.1583 19.2764 17.8417 19.0811 17.6464L13.4346 12L19.0811 6.35355Z" fill="currentColor"/>
</svg>
