<svg width="89" height="49" viewBox="0 0 113 62" fill="none" xmlns="http://www.w3.org/2000/svg">
    <path
        d="M76.0277 0C69.1767 0 62.823 1.85893 57.5169 5.03499C66.7877 10.7851 72.8873 20.4892 72.8873 31.4956C72.8873 41.9709 67.3588 51.2698 58.8335 57.1024C63.8596 59.8171 69.7381 61.3719 76.0277 61.3719C83.0684 61.3719 89.5895 59.3997 94.9871 56.0522L95.4649 55.7578L96.0111 55.9148L112.376 60.6161L105.491 46.7773L105.169 46.1393L105.54 45.5308C108.22 41.1269 109.743 36.0659 109.743 30.681C109.743 13.792 94.7292 0 76.0277 0ZM36.8703 0.637961C18.1688 0.637961 3.155 14.4201 3.155 31.3092C3.155 36.694 4.67763 41.755 7.35844 46.1589L7.72905 46.7675L7.41696 47.4054L0.54126 61.2443L16.8869 56.543L17.4331 56.3859L17.9109 56.6902C23.3085 60.0377 29.8296 62 36.8703 62C55.5714 62 70.5954 48.1978 70.5954 31.3092C70.5954 14.4206 55.5719 0.637961 36.8703 0.637961ZM80.1238 5.87906C84.7861 5.87906 88.5697 9.49635 88.5697 13.9468C88.5697 17.871 85.625 21.1554 81.733 21.8772C81.7315 21.8789 81.7135 21.8968 81.7135 21.8968L81.694 21.8772C81.1841 21.9694 80.6616 22.0244 80.1238 22.0244C79.6901 22.0244 79.2626 21.9868 78.8462 21.9262L78.8072 21.9557C78.8072 21.9557 78.782 21.9218 78.778 21.9164C74.7523 21.2989 71.6682 17.9606 71.6682 13.9468C71.6682 9.49635 75.4615 5.87906 80.1238 5.87906ZM79.6947 6.86054C79.5346 6.86926 79.3741 6.89149 79.2168 6.90961C78.887 7.38193 78.1894 8.41609 77.5784 9.71664C78.2301 9.94996 78.9569 10.142 79.7142 10.2074L79.6947 6.86054ZM80.709 6.86054L80.7285 10.2074C81.4775 10.1554 82.2155 9.98392 82.8839 9.76571C82.7817 9.54524 82.6766 9.33275 82.5718 9.12775C82.0429 8.09306 81.5318 7.30657 81.2747 6.92924C81.089 6.90176 80.899 6.87462 80.709 6.86054ZM77.8027 7.20405C76.8529 7.49962 75.9848 7.96763 75.2475 8.57812C75.5623 8.77704 76.0462 9.0514 76.6323 9.32405C77.0272 8.48068 77.4449 7.76246 77.8027 7.20405ZM82.6791 7.27276C82.9285 7.68078 83.1997 8.16031 83.4885 8.72534C83.6003 8.94393 83.7102 9.17633 83.8201 9.41238C84.3828 9.17638 84.8594 8.93345 85.1953 8.74497C84.4757 8.10552 83.621 7.60226 82.6791 7.27276ZM74.516 9.27497C73.4862 10.4013 72.8217 11.8386 72.702 13.4266H75.4913C75.5537 12.3195 75.8472 11.2212 76.2422 10.2172C75.4662 9.86614 74.8555 9.50328 74.516 9.27497ZM85.8975 9.46145C85.5296 9.68176 84.9353 9.99968 84.2103 10.3055C84.6026 11.2867 84.9186 12.3563 85.0197 13.4266H87.5457C87.4316 11.9274 86.8314 10.557 85.8975 9.46145ZM77.198 10.6098C76.8422 11.5118 76.5617 12.4844 76.4958 13.4266H79.724L79.7142 11.1496C78.804 11.0836 77.9504 10.8733 77.198 10.6098ZM83.2642 10.6589C82.4948 10.9126 81.6361 11.119 80.7285 11.1692L80.7383 13.4266H83.9957C83.8968 12.5092 83.6168 11.5523 83.2642 10.6589ZM72.702 14.4179C72.8114 16.0143 73.4683 17.4647 74.4965 18.599C74.8411 18.3964 75.3428 18.1204 76.0472 17.7942C76.1465 17.7482 76.2454 17.7028 76.3495 17.6568C75.9259 16.6358 75.5919 15.5227 75.501 14.4179H72.702ZM76.5153 14.4179C76.6053 15.3597 76.9031 16.3513 77.2858 17.2838C78.0615 16.9987 78.9018 16.7661 79.7435 16.695L79.7337 14.4179H76.5153ZM80.748 14.4179L80.7578 16.695C81.632 16.7635 82.5062 16.9949 83.3032 17.2838C83.6869 16.3569 83.9729 15.3653 84.0249 14.4179H80.748ZM85.049 14.4179C84.9984 15.538 84.6766 16.6504 84.2493 17.6666C84.2585 17.6706 84.2694 17.6724 84.2785 17.6764C85.0022 17.991 85.5188 18.2604 85.878 18.4616C86.8364 17.3483 87.4415 15.95 87.5457 14.4179H85.049ZM79.6947 17.647C79.0414 17.7215 78.3492 17.9181 77.6856 18.1574C77.8092 18.4149 77.9288 18.6657 78.0563 18.9033C78.5742 19.8691 79.0681 20.6026 79.3631 21.0233C79.4944 21.036 79.6298 21.0466 79.763 21.0527L79.7435 17.647C79.7271 17.6487 79.7112 17.6451 79.6947 17.647ZM80.7578 17.647L80.7773 21.0331C80.9027 21.0227 81.0243 21.0101 81.1479 20.9938C81.4367 20.6116 81.9427 19.9101 82.4743 18.972C82.6179 18.7185 82.7557 18.4454 82.8936 18.1672C82.1935 17.9201 81.4511 17.7164 80.7578 17.647ZM76.7396 18.5401C76.6602 18.5753 76.5723 18.6127 76.4958 18.6481C75.9772 18.8883 75.5415 19.1136 75.2182 19.2959C76.0101 19.9583 76.9516 20.4628 77.988 20.7583C77.7271 20.3489 77.4387 19.8833 77.1395 19.3253C77.0058 19.0761 76.8703 18.8112 76.7396 18.5401ZM83.8494 18.5401C83.6979 18.8446 83.5372 19.1384 83.3813 19.4136C83.1121 19.8886 82.8524 20.2891 82.6108 20.6503C83.5672 20.3265 84.4349 19.8211 85.166 19.1781C84.8308 18.9982 84.3813 18.7714 83.8494 18.5401ZM94.6945 20.2185L95.9721 20.2479L95.8941 24.1542L94.6165 24.1247L94.6945 20.2185ZM20.2809 20.8172C22.091 20.8172 24.2717 21.0115 26.5811 21.514L26.113 25.4694C23.7411 25.0611 22.2119 24.8707 20.3394 24.8707C18.2484 24.8707 17.7842 25.2456 17.7842 26.7845C17.7842 28.7946 17.8719 28.826 21.1489 29.6112C26.7664 30.9617 27.0493 32.0629 27.0493 36.1773C27.0493 40.3231 25.7053 42.3704 19.4324 42.3704C17.0293 42.3704 14.5014 41.8326 12.7225 41.016L13.5027 37.3747C15.4064 37.9714 17.3472 38.3758 19.5006 38.3758C21.9037 38.3758 22.368 37.9067 22.368 36.1479C22.368 34.2634 22.2782 34.0455 18.8765 33.2918C13.8518 32.1925 13.1028 31.1894 13.1028 26.6668C13.1028 22.4896 14.5696 20.8172 20.2809 20.8172ZM30.3555 21.1312H43.4339V25.3123H35.0368V29.1401H42.7805V33.3212H35.0368V37.8753H43.4339V42.0564H30.3555V21.1312ZM45.3455 21.1312H61.1937V25.3123H55.6151V42.0564H50.9338V25.3123H45.3455V21.1312ZM87.4872 23.3199L90.4228 26.4312L89.4767 27.2851L86.5412 24.164L87.4872 23.3199ZM103.121 23.3886L104.047 24.2523L101.268 27.1183L100.341 26.2644L103.121 23.3886ZM95.2309 26.6177C97.21 26.6177 98.5736 27.148 99.4343 28.0212C100.295 28.8944 100.644 30.1014 100.644 31.4368C100.644 32.7867 100.029 34.2764 99.4148 35.4314C98.8161 36.5565 98.2361 37.3433 98.2055 37.3845L98.1177 39.4947V39.5438L98.0787 39.583C98.0787 39.583 98.0263 39.6142 97.9226 39.6615C97.819 39.7089 97.6459 39.7712 97.4155 39.8284C96.9546 39.9428 96.2162 40.0453 95.0651 40.0051C93.9145 39.9649 93.2853 39.8284 92.939 39.691C92.7658 39.6223 92.671 39.5521 92.6074 39.4947C92.5756 39.466 92.5534 39.4374 92.5391 39.4162C92.5248 39.395 92.5099 39.3671 92.5099 39.3671V39.3573V39.3377V36.9821C92.4058 36.8801 90.0619 34.5587 90.0619 31.9177C90.0619 30.5856 90.3463 29.2617 91.1445 28.2666C91.9426 27.2715 93.2469 26.6177 95.2309 26.6177ZM95.4942 27.3636C95.0517 27.3558 94.171 27.508 93.3388 27.9329C92.5067 28.3578 91.7159 29.0512 91.4175 30.1118C91.1938 30.9071 91.074 31.448 91.0177 31.7999C90.9656 32.1251 90.9856 32.2629 90.9982 32.3103C91.0239 32.2856 91.0567 32.2514 91.0567 32.2514L91.0957 32.2023H91.1542H92.3343C92.3084 32.0289 92.2097 31.3138 92.4708 30.3768C92.7652 29.3204 93.5367 28.0944 95.3577 27.501C95.499 27.455 95.5986 27.4176 95.66 27.3833C95.617 27.3751 95.5679 27.365 95.4942 27.3636ZM83.6836 32.0453L87.5164 32.1336L87.4872 33.3801L83.6543 33.3016L83.6836 32.0453ZM103.17 32.1336H106.924V33.3801H103.17V32.1336ZM81.8793 37.5514C82.4843 37.5492 82.9528 37.5508 83.157 37.5612C83.9737 37.6034 84.6686 38.4023 84.7174 39.3377C84.7662 40.273 84.7467 54.4555 84.7467 55.3848C84.7467 56.3141 83.7795 57.1503 83.1179 57.2006C82.4564 57.2508 77.2438 57.2851 76.2715 57.2006C75.2991 57.1161 74.7967 56.2948 74.7208 55.4339C74.6449 54.573 74.7 40.4204 74.6818 39.4162C74.6636 38.4119 75.5159 37.5965 76.3885 37.6004C77.043 37.6033 80.0643 37.5582 81.8793 37.5514ZM79.7142 38.7978C79.1978 38.8004 78.6875 38.8058 78.5049 38.8077C78.1396 38.8111 78.1442 39.193 78.5146 39.2101C78.8851 39.2272 80.5736 39.2297 80.9626 39.2297C81.3515 39.2297 81.3727 38.8307 80.9626 38.8077C80.7575 38.7963 80.2306 38.7953 79.7142 38.7978ZM92.8902 40.7314C92.8902 40.7314 93.2174 41.2123 95.0943 41.2123C96.9713 41.2123 97.6983 40.8884 97.6983 40.8884V42.9691L96.4792 43.1262C96.4792 43.1262 96.5561 44.4806 95.2504 44.4806C93.9447 44.4806 94.1093 43.1262 94.1093 43.1262L92.9682 43.0476L92.8902 40.7314ZM75.4523 40.8786L75.4718 53.8439L83.9372 53.8243L83.9567 40.8982L75.4523 40.8786ZM79.7045 54.688C79.291 54.688 78.9535 55.0615 78.9535 55.5222C78.9535 55.983 79.291 56.3565 79.7045 56.3565C80.118 56.3565 80.4554 55.983 80.4554 55.5222C80.4554 55.0615 80.118 54.688 79.7045 54.688Z"
        fill="#0091DA" />
</svg>