<svg width="89" height="49" viewBox="0 0 89 49" fill="none" xmlns="http://www.w3.org/2000/svg">
<path d="M59.8565 0C54.424 0 49.3859 1.45975 45.1785 3.95378C52.5297 8.46912 57.3663 16.0894 57.3663 24.7323C57.3663 32.9581 52.9826 40.2602 46.2225 44.8403C50.2079 46.9721 54.8693 48.1929 59.8565 48.1929C65.4394 48.1929 70.6102 46.6443 74.8902 44.0156L75.2692 43.7844L75.7022 43.9077L88.6789 47.5995L83.2191 36.7324L82.9639 36.2314L83.2578 35.7536C85.3835 32.2953 86.5909 28.3211 86.5909 24.0926C86.5909 10.8303 74.6858 0 59.8565 0ZM28.8069 0.500966C13.9776 0.500966 2.07255 11.3235 2.07255 24.5859C2.07255 28.8144 3.27991 32.7886 5.40564 36.2468L5.69951 36.7247L5.45204 37.2256L0 48.0927L12.9612 44.401L13.3942 44.2777L13.7732 44.5166C18.0532 47.1452 23.224 48.6862 28.8069 48.6862C43.6358 48.6862 55.549 37.8478 55.549 24.5859C55.549 11.3239 43.6362 0.500966 28.8069 0.500966ZM63.1045 4.61659C66.8015 4.61659 69.8016 7.45711 69.8016 10.9519C69.8016 14.0334 67.4666 16.6125 64.3805 17.1793C64.3793 17.1807 64.3651 17.1947 64.3651 17.1947L64.3496 17.1793C63.9452 17.2517 63.531 17.2949 63.1045 17.2949C62.7606 17.2949 62.4216 17.2654 62.0914 17.2178L62.0605 17.2409C62.0605 17.2409 62.0405 17.2143 62.0373 17.2101C58.8452 16.7252 56.3997 14.1038 56.3997 10.9519C56.3997 7.45711 59.4076 4.61659 63.1045 4.61659ZM62.7643 5.38731C62.6373 5.39417 62.51 5.41162 62.3853 5.42585C62.1237 5.79674 61.5706 6.60883 61.0861 7.6301C61.6029 7.81332 62.1792 7.96411 62.7797 8.01546L62.7643 5.38731ZM63.5685 5.38731L63.584 8.01546C64.1779 7.97465 64.7631 7.83999 65.2931 7.66863C65.2121 7.49551 65.1287 7.32865 65.0456 7.16767C64.6262 6.35517 64.2209 5.73756 64.0171 5.44126C63.8698 5.41969 63.7192 5.39837 63.5685 5.38731ZM61.264 5.65706C60.5108 5.88916 59.8225 6.25667 59.2378 6.73607C59.4874 6.89226 59.8712 7.10772 60.336 7.32181C60.6491 6.65955 60.9803 6.09556 61.264 5.65706ZM65.1307 5.71101C65.3284 6.03141 65.5435 6.40797 65.7725 6.85167C65.8611 7.02332 65.9483 7.20582 66.0355 7.39117C66.4817 7.20585 66.8596 7.01509 67.1259 6.86709C66.5553 6.36495 65.8776 5.96976 65.1307 5.71101ZM58.6578 7.28327C57.8412 8.16777 57.3143 9.2964 57.2194 10.5434H59.4312C59.4807 9.67399 59.7134 8.81157 60.0266 8.02316C59.4113 7.74749 58.927 7.46255 58.6578 7.28327ZM67.6827 7.42971C67.391 7.60271 66.9197 7.85236 66.3448 8.09253C66.6559 8.86301 66.9065 9.70289 66.9867 10.5434H68.9896C68.8991 9.36608 68.4232 8.29003 67.6827 7.42971ZM60.7845 8.33145C60.5024 9.03977 60.28 9.80351 60.2277 10.5434H62.7875L62.7797 8.75534C62.058 8.70352 61.3811 8.53838 60.7845 8.33145ZM65.5947 8.36999C64.9846 8.56926 64.3036 8.73135 63.584 8.77076L63.5917 10.5434H66.1747C66.0963 9.82295 65.8742 9.07158 65.5947 8.36999ZM57.2194 11.3218C57.3062 12.5754 57.8271 13.7144 58.6423 14.6051C58.9156 14.446 59.3135 14.2293 59.872 13.9731C59.9507 13.937 60.0291 13.9013 60.1117 13.8652C59.7758 13.0634 59.5109 12.1894 59.4389 11.3218H57.2194ZM60.2432 11.3218C60.3145 12.0613 60.5507 12.8401 60.8541 13.5723C61.4692 13.3484 62.1355 13.1658 62.8029 13.1099L62.7952 11.3218H60.2432ZM63.5995 11.3218L63.6072 13.1099C64.3004 13.1637 64.9936 13.3454 65.6256 13.5723C65.9298 12.8444 66.1566 12.0658 66.1979 11.3218H63.5995ZM67.0099 11.3218C66.9698 12.2014 66.7146 13.0749 66.3757 13.8729C66.383 13.876 66.3917 13.8775 66.3989 13.8806C66.9728 14.1277 67.3824 14.3392 67.6672 14.4972C68.4272 13.6229 68.907 12.5249 68.9896 11.3218H67.0099ZM62.7643 13.8575C62.2462 13.916 61.6973 14.0704 61.1712 14.2583C61.2691 14.4605 61.364 14.6574 61.465 14.844C61.8757 15.6024 62.2674 16.1784 62.5013 16.5088C62.6054 16.5187 62.7128 16.5271 62.8184 16.5319L62.8029 13.8575C62.7899 13.8588 62.7773 13.856 62.7643 13.8575ZM63.6072 13.8575L63.6227 16.5165C63.7221 16.5083 63.8185 16.4984 63.9165 16.4856C64.1456 16.1855 64.5468 15.6347 64.9683 14.898C65.0821 14.6989 65.1915 14.4845 65.3008 14.266C64.7457 14.0719 64.157 13.912 63.6072 13.8575ZM60.421 14.5588C60.358 14.5865 60.2884 14.6158 60.2277 14.6436C59.8165 14.8322 59.4709 15.0091 59.2146 15.1523C59.8426 15.6724 60.5891 16.0687 61.4109 16.3007C61.204 15.9792 60.9754 15.6136 60.7381 15.1754C60.6321 14.9797 60.5247 14.7717 60.421 14.5588ZM66.0587 14.5588C65.9386 14.7979 65.8111 15.0286 65.6875 15.2448C65.4741 15.6178 65.2681 15.9323 65.0765 16.2159C65.8349 15.9616 66.5229 15.5648 67.1027 15.0598C66.8369 14.9185 66.4805 14.7404 66.0587 14.5588ZM74.6582 15.8768L75.6713 15.8999L75.6094 18.9673L74.5964 18.9442L74.6582 15.8768ZM15.6524 16.3469C17.0877 16.3469 18.8169 16.4995 20.6482 16.8941L20.277 20.0001C18.3962 19.6795 17.1836 19.53 15.6988 19.53C14.0408 19.53 13.6726 19.8244 13.6726 21.0329C13.6726 22.6113 13.7422 22.636 16.3407 23.2525C20.7951 24.313 21.0194 25.1778 21.0194 28.4086C21.0194 31.6641 19.9537 33.2718 14.9796 33.2718C13.0741 33.2718 11.0696 32.8495 9.65901 32.2083L10.2777 29.3489C11.7872 29.8175 13.3262 30.135 15.0337 30.135C16.9392 30.135 17.3073 29.7666 17.3073 28.3855C17.3073 26.9057 17.2362 26.7346 14.5388 26.1427C10.5545 25.2795 9.96062 24.4918 9.96062 20.9404C9.96062 17.6602 11.1237 16.3469 15.6524 16.3469ZM23.641 16.5935H34.0115V19.8768H27.353V22.8826H33.4933V26.1658H27.353V29.742H34.0115V33.0252H23.641V16.5935ZM35.5272 16.5935H48.094V19.8768H43.6705V33.0252H39.9585V19.8768H35.5272V16.5935ZM68.9432 18.3122L71.271 20.7554L70.5209 21.4259L68.1931 18.975L68.9432 18.3122ZM81.3399 18.3662L82.0745 19.0444L79.8705 21.2949L79.1359 20.6244L81.3399 18.3662ZM75.0835 20.9018C76.6529 20.9018 77.7342 21.3183 78.4166 22.004C79.0991 22.6896 79.3756 23.6375 79.3756 24.6861C79.3756 25.7461 78.8886 26.9159 78.4012 27.8229C77.9264 28.7064 77.4665 29.3242 77.4422 29.3566L77.3726 31.0136V31.0522L77.3417 31.083C77.3417 31.083 77.3002 31.1075 77.218 31.1447C77.1358 31.1819 76.9986 31.2308 76.8158 31.2757C76.4504 31.3655 75.8649 31.446 74.9521 31.4144C74.0398 31.3829 73.5408 31.2757 73.2662 31.1678C73.1289 31.1138 73.0537 31.0587 73.0033 31.0136C72.9781 30.9911 72.9605 30.9686 72.9491 30.952C72.9378 30.9353 72.9259 30.9135 72.9259 30.9135V30.9057V30.8903V29.0406C72.8434 28.9605 70.9849 27.1376 70.9849 25.0637C70.9849 24.0177 71.2103 22.9781 71.8433 22.1966C72.4762 21.4152 73.5104 20.9018 75.0835 20.9018ZM75.2924 21.4876C74.9415 21.4814 74.2431 21.6009 73.5833 21.9346C72.9234 22.2683 72.2964 22.8128 72.0598 23.6456C71.8824 24.2701 71.7874 24.6949 71.7427 24.9712C71.7014 25.2266 71.7173 25.3348 71.7273 25.372C71.7477 25.3526 71.7737 25.3258 71.7737 25.3258L71.8046 25.2872H71.851H72.7867C72.7662 25.1511 72.688 24.5895 72.895 23.8537C73.1284 23.0242 73.7401 22.0614 75.1841 21.5955C75.2962 21.5593 75.3752 21.53 75.4238 21.503C75.3897 21.4966 75.3508 21.4886 75.2924 21.4876ZM65.9272 25.1639L68.9664 25.2333L68.9432 26.2121L65.904 26.1504L65.9272 25.1639ZM81.3785 25.2333H84.3559V26.2121H81.3785V25.2333ZM64.4965 29.4876C64.9763 29.4859 65.3477 29.4871 65.5096 29.4953C66.1573 29.5285 66.7083 30.1559 66.7469 30.8903C66.7856 31.6248 66.7701 42.7618 66.7701 43.4916C66.7701 44.2213 66.0033 44.8779 65.4787 44.9174C64.9541 44.9569 60.8208 44.9837 60.0498 44.9174C59.2788 44.851 58.8804 44.2061 58.8202 43.5301C58.76 42.854 58.8037 31.7406 58.7893 30.952C58.7748 30.1634 59.4506 29.5231 60.1426 29.5262C60.6616 29.5284 63.0573 29.493 64.4965 29.4876ZM62.7797 30.4664C62.3702 30.4684 61.9656 30.4727 61.8208 30.4741C61.5311 30.4768 61.5348 30.7767 61.8285 30.7901C62.1223 30.8036 63.4612 30.8056 63.7696 30.8056C64.078 30.8056 64.0948 30.4922 63.7696 30.4741C63.607 30.4652 63.1892 30.4644 62.7797 30.4664ZM73.2275 31.9848C73.2275 31.9848 73.487 32.3624 74.9753 32.3624C76.4636 32.3624 77.0401 32.1081 77.0401 32.1081V33.742L76.0734 33.8653C76.0734 33.8653 76.1344 34.9289 75.099 34.9289C74.0637 34.9289 74.1942 33.8653 74.1942 33.8653L73.2894 33.8036L73.2275 31.9848ZM59.4002 32.1004L59.4157 42.2815L66.1283 42.2661L66.1437 32.1158L59.4002 32.1004ZM62.772 42.9443C62.4441 42.9443 62.1765 43.2376 62.1765 43.5995C62.1765 43.9613 62.4441 44.2546 62.772 44.2546C63.0999 44.2546 63.3675 43.9613 63.3675 43.5995C63.3675 43.2376 63.0999 42.9443 62.772 42.9443Z" fill="white"/>
</svg>
