<?xml version="1.0" encoding="UTF-8"?>
<svg version="1.1" xmlns="http://www.w3.org/2000/svg" width="413" height="500">
<path d="M0 0 C136.29 0 272.58 0 413 0 C413.0928125 57.481875 413.0928125 57.481875 413.1875 116.125 C413.21481201 128.19336426 413.24212402 140.26172852 413.27026367 152.69580078 C413.28381348 167.51342773 413.28381348 167.51342773 413.28633118 174.46578979 C413.28910889 179.28736574 413.30028209 184.10884106 413.31672668 188.9303894 C413.33750529 195.10573039 413.34343668 201.2809278 413.33921683 207.4563005 C413.34009751 209.70693003 413.34592602 211.95756526 413.35764539 214.20816445 C413.45074065 232.97825515 411.86230492 251.31485042 407.25 269.5625 C406.99395996 270.59640869 406.73791992 271.63031738 406.47412109 272.69555664 C402.21327315 289.46028538 396.46000613 305.40245716 389 321 C388.6685498 321.69464355 388.33709961 322.38928711 387.99560547 323.10498047 C369.96427418 360.60345497 344.46996199 392.53639547 315.25 421.875 C314.06180664 423.07020264 314.06180664 423.07020264 312.84960938 424.28955078 C308.06057241 429.06556317 303.13792864 433.60360017 298 438 C296.9169986 438.94941532 295.83491955 439.89988413 294.75390625 440.8515625 C285.81065496 448.6525597 276.51985165 455.91790286 267 463 C265.90896973 463.81452637 265.90896973 463.81452637 264.79589844 464.64550781 C253.54485394 473.01294391 241.98429717 480.72505446 230 488 C228.62932373 488.84401367 228.62932373 488.84401367 227.23095703 489.70507812 C224.41678373 491.42990956 221.58664842 493.12493669 218.75 494.8125 C217.88076904 495.34689697 217.01153809 495.88129395 216.1159668 496.43188477 C212.34046611 498.63496498 209.84737965 499.97499535 205.42578125 500.10546875 C201.09210721 498.70703117 197.36403131 496.7848899 193.4375 494.5 C192.64811035 494.05003662 191.8587207 493.60007324 191.04541016 493.13647461 C183.86432873 489.00470469 176.87522892 484.62012351 170 480 C169.37416016 479.58137695 168.74832031 479.16275391 168.10351562 478.73144531 C149.35090775 466.14573983 131.06606112 452.55833383 114.44311523 437.23925781 C112.11979759 435.10980149 109.7677178 433.01716253 107.41015625 430.92578125 C102.18835871 426.22924758 97.18507206 421.33771763 92.23071289 416.36108398 C90.80662508 414.93160283 89.37721956 413.50759489 87.94726562 412.08398438 C82.75632159 406.88580557 77.7289195 401.62239857 73 396 C72.49025635 395.39696045 71.9805127 394.7939209 71.45532227 394.17260742 C27.23194993 341.38622012 -0.70636615 278.50428208 -0.34057617 209.00024414 C-0.33965422 206.66457605 -0.34006264 204.32890712 -0.34167194 201.9932394 C-0.3423412 195.81415253 -0.32512505 189.63524474 -0.30384064 183.45619965 C-0.28658408 177.62928283 -0.28594204 171.80240662 -0.28381348 165.97546387 C-0.26815561 149.00445277 -0.22627184 132.03347403 -0.1875 115.0625 C-0.125625 77.091875 -0.06375 39.12125 0 0 Z " fill="#00A0E4" transform="translate(0,0)"/>
<path d="M0 0 C6.31388113 5.0624285 10.97137256 11.72911426 12.31347656 19.78173828 C12.99252819 27.02805635 13.29106748 33.16631755 8.81347656 39.19580078 C4.65477677 43.59275942 0.13364099 45.89221063 -5.87402344 46.09423828 C-10.88252535 46.01279923 -14.6665435 44.79453371 -18.68652344 41.78173828 C-22.66807971 37.4346297 -24.76076388 33.38339552 -24.89746094 27.43017578 C-24.92582031 26.57810547 -24.95417969 25.72603516 -24.98339844 24.84814453 C-25.03479585 23.07750371 -25.07926009 21.30664573 -25.11621094 19.53564453 C-25.38123098 12.17029589 -26.37043608 5.56104311 -31.18652344 -0.21826172 C-36.54310304 -4.5035254 -43.13875416 -3.66122274 -49.68652344 -3.21826172 C-54.67138485 -1.58528988 -56.29660799 0.22927471 -58.68652344 4.78173828 C-62.24828779 16.85128353 -60.95661779 30.54088169 -60.92602539 42.96264648 C-60.92713961 45.51000016 -60.92919951 48.05735357 -60.93212891 50.60470581 C-60.93683529 56.07092702 -60.93588156 61.5371013 -60.93035316 67.00332069 C-60.92209144 75.65785707 -60.93341639 84.31231813 -60.94755554 92.96684265 C-60.95215539 95.93639452 -60.95660596 98.90594659 -60.96099377 101.87549877 C-60.96264098 102.98835316 -60.96264098 102.98835316 -60.96432147 104.12368945 C-60.97646798 112.54738181 -60.98403952 120.97107657 -60.98999023 129.39477539 C-60.99053829 130.16377736 -60.99108635 130.93277933 -60.99165102 131.72508439 C-61.00010872 144.1841523 -60.99677138 156.6431986 -60.99083588 169.10226665 C-60.98520389 181.93070331 -60.9988209 194.75903181 -61.02838868 207.58743542 C-61.04585051 215.47992241 -61.04765667 223.37209513 -61.02874353 231.26458027 C-61.01568534 237.32285507 -61.02876433 243.38079358 -61.05117035 249.43905258 C-61.05619276 251.91084121 -61.05279766 254.38266463 -61.04003716 256.85442543 C-60.8834561 289.52466641 -60.8834561 289.52466641 -71.87792969 301.96142578 C-72.77318359 302.86248047 -72.77318359 302.86248047 -73.68652344 303.78173828 C-74.23179687 304.34119141 -74.77707031 304.90064453 -75.33886719 305.47705078 C-87.22862139 316.61145589 -102.84984556 318.960462 -118.43652344 318.96923828 C-119.56574219 318.98148437 -120.69496094 318.99373047 -121.85839844 319.00634766 C-138.03598943 319.03443375 -152.43765495 314.80175588 -164.68652344 303.78173828 C-167.1071185 300.95606405 -168.97130357 298.07799416 -170.68652344 294.78173828 C-171.193125 293.82847656 -171.193125 293.82847656 -171.70996094 292.85595703 C-174.49608589 286.68302882 -175.0441788 279.15371181 -173.03027344 272.66845703 C-170.28304393 267.3279376 -165.37836791 262.67901977 -159.68652344 260.78173828 C-153.59463077 259.92544815 -149.20472197 261.03869906 -143.82714844 263.90673828 C-138.93072334 268.19557778 -136.51043395 272.78596267 -135.90136719 279.27783203 C-135.78709932 281.2571617 -135.69501657 283.23788444 -135.62402344 285.21923828 C-135.27167542 294.05104361 -134.48692481 301.45275996 -128.46777344 308.30908203 C-124.6362124 310.33787207 -121.46164767 310.40699917 -117.18652344 310.34423828 C-116.44015625 310.36808594 -115.69378906 310.39193359 -114.92480469 310.41650391 C-110.74279819 310.40540123 -109.14278207 310.15030204 -105.78027344 307.43408203 C-99.52385707 299.50850981 -99.38962613 291.4103981 -99.43496704 281.60588074 C-99.4319969 280.51226567 -99.42902676 279.4186506 -99.42596662 278.29189569 C-99.41835609 274.64416875 -99.42480864 270.99660424 -99.43115234 267.34887695 C-99.42840107 264.72665803 -99.42472034 262.10443995 -99.42018127 259.48222351 C-99.4115692 253.84295492 -99.40973513 248.20371769 -99.41212845 242.56444359 C-99.41523418 234.3980442 -99.40355875 226.23171374 -99.38757865 218.06533173 C-99.36164404 204.79689725 -99.34161153 191.52846272 -99.328125 178.26000977 C-99.32690945 177.07013849 -99.32690945 177.07013849 -99.32566933 175.8562294 C-99.31445116 164.60268762 -99.30916704 153.34915078 -99.30628221 142.09560416 C-99.30607822 141.30326621 -99.30587423 140.51092827 -99.30566406 139.69458008 C-99.30546413 138.90321461 -99.30526419 138.11184915 -99.3050582 137.29650291 C-99.30131963 124.07949752 -99.28219674 110.86256705 -99.2505697 97.64559919 C-99.23170237 89.50466597 -99.22566433 81.3639253 -99.23638688 73.2229763 C-99.24347803 66.97856487 -99.22987721 60.73435309 -99.20876884 54.48997688 C-99.20345641 51.93588627 -99.20492732 49.38177084 -99.21380424 46.82769012 C-99.22497406 43.33099033 -99.21143625 39.83519204 -99.19204712 36.33854675 C-99.20117178 35.33686578 -99.21029643 34.33518482 -99.21969759 33.30314988 C-99.08217963 20.48742326 -94.63344649 10.93085868 -85.80761719 1.84814453 C-63.70885929 -18.91129471 -23.68751398 -17.11069698 0 0 Z " fill="#FCFEFE" transform="translate(286.6865234375,56.21826171875)"/>
<path d="M0 0 C23.76 0 47.52 0 72 0 C72 8.58 72 17.16 72 26 C66.06 26 60.12 26 54 26 C54 68.9 54 111.8 54 156 C41.79 156 29.58 156 17 156 C17 113.1 17 70.2 17 26 C11.39 26 5.78 26 0 26 C0 17.42 0 8.84 0 0 Z " fill="#FBFDFE" transform="translate(245,132)"/>
<path d="M0 0 C12.21 0 24.42 0 37 0 C37 51.48 37 102.96 37 156 C24.79 156 12.58 156 0 156 C0 104.52 0 53.04 0 0 Z " fill="#FBFDFE" transform="translate(113,132)"/>
</svg>
